<svg version="1.2" baseProfile="tiny-ps" xmlns="http://www.w3.org/2000/svg" viewBox="0 0 24 24" width="24" height="24">
	<title>instagram-svg</title>
	<style>
		tspan { white-space:pre }
		.shp0 { fill: #000000 } 
	</style>
	<path fill-rule="evenodd" class="shp0" d="M20 0C20.53 0 21.05 0.1 21.53 0.3C22.02 0.51 22.46 0.8 22.83 1.17C23.2 1.54 23.49 1.98 23.7 2.47C23.9 2.95 24 3.47 24 4L24 20C24 20.53 23.9 21.05 23.7 21.53C23.49 22.02 23.2 22.46 22.83 22.83C22.46 23.2 22.02 23.49 21.53 23.7C21.05 23.9 20.53 24 20 24L4 24C3.47 24 2.95 23.9 2.47 23.7C1.98 23.49 1.54 23.2 1.17 22.83C0.8 22.46 0.51 22.02 0.3 21.53C0.1 21.05 0 20.53 0 20L0 4C0 3.47 0.1 2.95 0.3 2.47C0.51 1.98 0.8 1.54 1.17 1.17C1.54 0.8 1.98 0.51 2.47 0.3C2.95 0.1 3.47 0 4 0L20 0ZM22 4C22 3.74 21.95 3.48 21.85 3.23C21.75 2.99 21.6 2.77 21.41 2.59C21.23 2.4 21.01 2.25 20.77 2.15C20.52 2.05 20.26 2 20 2L4 2C3.74 2 3.48 2.05 3.23 2.15C2.99 2.25 2.77 2.4 2.59 2.59C2.4 2.77 2.25 2.99 2.15 3.23C2.05 3.48 2 3.74 2 4L2 20C2 20.26 2.05 20.52 2.15 20.77C2.25 21.01 2.4 21.23 2.59 21.41C2.77 21.6 2.99 21.75 3.23 21.85C3.48 21.95 3.74 22 4 22L20 22C20.26 22 20.52 21.95 20.77 21.85C21.01 21.75 21.23 21.6 21.41 21.41C21.6 21.23 21.75 21.01 21.85 20.77C21.95 20.52 22 20.26 22 20L22 4Z" />
	<path fill-rule="evenodd" class="shp0" d="M12 6C12.79 6 13.57 6.16 14.3 6.46C15.02 6.76 15.69 7.2 16.24 7.76C16.8 8.31 17.24 8.98 17.54 9.7C17.84 10.43 18 11.21 18 12C18 14.43 16.54 16.61 14.3 17.54C12.05 18.47 9.47 17.96 7.76 16.24C6.04 14.53 5.53 11.95 6.46 9.7C7.39 7.46 9.57 6 12 6ZM13.53 15.7C14.02 15.49 14.46 15.2 14.83 14.83C15.2 14.46 15.49 14.02 15.7 13.53C15.9 13.05 16 12.53 16 12C16 10.38 15.03 8.92 13.53 8.3C12.04 7.69 10.32 8.03 9.17 9.17C8.03 10.32 7.69 12.04 8.3 13.53C8.92 15.03 10.38 16 12 16C12.53 16 13.05 15.9 13.53 15.7Z" />
	<path class="shp0" d="M18.5 7C17.67 7 17 6.33 17 5.5C17 4.67 17.67 4 18.5 4C19.33 4 20 4.67 20 5.5C20 6.33 19.33 7 18.5 7Z" />
</svg>