<svg version="1.2" baseProfile="tiny-ps" xmlns="http://www.w3.org/2000/svg" viewBox="0 0 176 26" width="176" height="26">
	<style>
		tspan { white-space:pre }
		.shp0 { fill: #000000 } 
	</style>
	<path fill-rule="evenodd" class="shp0" d="M19 3L19 7L23 7C23.39 7 23.78 7.08 24.15 7.23C24.51 7.38 24.84 7.6 25.12 7.88C25.4 8.16 25.62 8.49 25.77 8.85C25.92 9.22 26 9.61 26 10L26 22C26 22.39 25.92 22.78 25.77 23.15C25.62 23.51 25.4 23.84 25.12 24.12C24.84 24.4 24.51 24.62 24.15 24.77C23.78 24.92 23.39 25 23 25L3 25C2.61 25 2.22 24.92 1.85 24.77C1.49 24.62 1.16 24.4 0.88 24.12C0.6 23.84 0.38 23.51 0.23 23.15C0.08 22.78 0 22.39 0 22L0 10C0 9.61 0.08 9.22 0.23 8.85C0.38 8.49 0.6 8.16 0.88 7.88C1.16 7.6 1.49 7.38 1.85 7.23C2.22 7.08 2.61 7 3 7L6 7L6 3L1 3C0.73 3 0.48 2.89 0.29 2.71C0.11 2.52 0 2.27 0 2C0 1.73 0.11 1.48 0.29 1.29C0.48 1.11 0.73 1 1 1L25 1C25.27 1 25.52 1.11 25.71 1.29C25.89 1.48 26 1.73 26 2C26 2.27 25.89 2.52 25.71 2.71C25.52 2.89 25.27 3 25 3L19 3ZM17 3L8 3L8 7L17 7L17 3Z" />
	<path fill="#000000" aria-label="S H O P M A R T"  d="M50.02 17.44Q50.02 19.7 48.38 20.97Q46.74 22.23 43.93 22.23Q40.88 22.23 39.24 21.45L39.24 19.53Q40.3 19.97 41.54 20.23Q42.78 20.49 44 20.49Q45.99 20.49 47 19.74Q48.01 18.98 48.01 17.63Q48.01 16.74 47.64 16.18Q47.29 15.6 46.45 15.12Q45.62 14.64 43.91 14.03Q41.52 13.18 40.48 12Q39.46 10.83 39.46 8.95Q39.46 6.96 40.95 5.79Q42.44 4.62 44.89 4.62Q47.45 4.62 49.59 5.56L48.97 7.29Q46.85 6.4 44.84 6.4Q43.26 6.4 42.37 7.08Q41.48 7.76 41.48 8.97Q41.48 9.86 41.81 10.43Q42.14 11 42.91 11.48Q43.7 11.95 45.3 12.52Q48 13.48 49 14.58Q50.02 15.68 50.02 17.44ZM67.83 4.87L67.83 22L65.84 22L65.84 13.94L56.82 13.94L56.82 22L54.83 22L54.83 4.87L56.82 4.87L56.82 12.16L65.84 12.16L65.84 4.87L67.83 4.87ZM88.7 13.41Q88.7 17.52 86.62 19.88Q84.54 22.23 80.84 22.23Q77.05 22.23 74.99 19.93Q72.94 17.61 72.94 13.39Q72.94 9.2 75 6.91Q77.07 4.6 80.86 4.6Q84.55 4.6 86.63 6.94Q88.7 9.29 88.7 13.41ZM75.05 13.41Q75.05 16.89 76.53 18.7Q78.02 20.49 80.84 20.49Q83.69 20.49 85.14 18.7Q86.59 16.9 86.59 13.41Q86.59 9.95 85.14 8.17Q83.7 6.38 80.86 6.38Q78.02 6.38 76.53 8.18Q75.05 9.98 75.05 13.41ZM104.69 9.86Q104.69 12.46 102.9 13.87Q101.13 15.26 97.83 15.26L95.81 15.26L95.81 22L93.82 22L93.82 4.87L98.26 4.87Q104.69 4.87 104.69 9.86ZM95.81 6.59L95.81 13.55L97.61 13.55Q100.26 13.55 101.44 12.7Q102.62 11.84 102.62 9.95Q102.62 8.25 101.51 7.42Q100.4 6.59 98.04 6.59L95.81 6.59ZM118.76 22L117.15 22L111.34 6.81L111.25 6.81Q111.41 8.62 111.41 11.1L111.41 22L109.57 22L109.57 4.87L112.57 4.87L118 19L118.09 19L123.56 4.87L126.54 4.87L126.54 22L124.55 22L124.55 10.96Q124.55 9.06 124.71 6.84L124.62 6.84L118.76 22ZM145.37 22L143.31 22L141.17 16.55L134.31 16.55L132.2 22L130.18 22L136.96 4.8L138.63 4.8L145.37 22ZM135.01 14.76L140.55 14.76L138.56 9.45Q138.17 8.44 137.76 6.98Q137.51 8.1 137.03 9.45L135.01 14.76ZM154.59 14.88L151.02 14.88L151.02 22L149.02 22L149.02 4.87L153.72 4.87Q156.88 4.87 158.38 6.07Q159.89 7.28 159.89 9.71Q159.89 13.11 156.44 14.3L161.09 22L158.74 22L154.59 14.88ZM151.02 6.61L151.02 13.16L153.75 13.16Q155.86 13.16 156.84 12.33Q157.82 11.49 157.82 9.81Q157.82 8.11 156.82 7.36Q155.82 6.61 153.61 6.61L151.02 6.61ZM170.43 6.64L170.43 22L168.44 22L168.44 6.64L163.01 6.64L163.01 4.87L175.86 4.87L175.86 6.64L170.43 6.64Z" />
</svg>