<svg version="1.2" baseProfile="tiny-ps" xmlns="http://www.w3.org/2000/svg" viewBox="0 0 26 26" width="26" height="26"><style>tspan { white-space:pre }.shp0 { fill: #000000 } </style><path fill-rule="evenodd" class="shp0" d="M19 3L19 7L23 7C23.39 7 23.78 7.08 24.15 7.23C24.51 7.38 24.84 7.6 25.12 7.88C25.4 8.16 25.62 8.49 25.77 8.85C25.92 9.22 26 9.61 26 10L26 22C26 22.39 25.92 22.78 25.77 23.15C25.62 23.51 25.4 23.84 25.12 24.12C24.84 24.4 24.51 24.62 24.15 24.77C23.78 24.92 23.39 25 23 25L3 25C2.61 25 2.22 24.92 1.85 24.77C1.49 24.62 1.16 24.4 0.88 24.12C0.6 23.84 0.38 23.51 0.23 23.15C0.08 22.78 0 22.39 0 22L0 10C0 9.61 0.08 9.22 0.23 8.85C0.38 8.49 0.6 8.16 0.88 7.88C1.16 7.6 1.49 7.38 1.85 7.23C2.22 7.08 2.61 7 3 7L6 7L6 3L1 3C0.73 3 0.48 2.89 0.29 2.71C0.11 2.52 0 2.27 0 2C0 1.73 0.11 1.48 0.29 1.29C0.48 1.11 0.73 1 1 1L25 1C25.27 1 25.52 1.11 25.71 1.29C25.89 1.48 26 1.73 26 2C26 2.27 25.89 2.52 25.71 2.71C25.52 2.89 25.27 3 25 3L19 3ZM17 3L8 3L8 7L17 7L17 3Z" /></svg>