<svg version="1.2" baseProfile="tiny-ps" xmlns="http://www.w3.org/2000/svg" viewBox="0 0 48 48" width="48" height="48">
	<title>logo-svg</title>
	<style>
		tspan { white-space:pre }
		.shp0 { fill: #000000 } 
	</style>
	<path fill-rule="evenodd" class="shp0" d="M7.81 21.82C13.2 20.61 18.6 20 24 20C29.4 20 34.8 20.61 40.19 21.82C44.76 22.85 48 26.9 48 31.58L48 40L0 40L0 31.58C0 26.9 3.24 22.85 7.81 21.82ZM4 36L44 36L44 31.58C44 28.77 42.05 26.34 39.32 25.72C34.2 24.57 29.1 24 24 24C18.9 24 13.8 24.57 8.68 25.72C5.95 26.34 4 28.77 4 31.58L4 36Z" />
	<path fill-rule="evenodd" class="shp0" d="M16 12L20 12C23.31 12 26 14.69 26 18L26 24L10 24L10 18C10 14.69 12.69 12 16 12ZM22 20L22 18C22 16.9 21.1 16 20 16L16 16C14.9 16 14 16.9 14 18L14 20L22 20Z" />
	<path fill-rule="evenodd" class="shp0" d="M28 12L32 12C35.31 12 38 14.69 38 18L38 24L22 24L22 18C22 14.69 24.69 12 28 12ZM34 20L34 18C34 16.9 33.1 16 32 16L28 16C26.9 16 26 16.9 26 18L26 20L34 20Z" />
	<path class="shp0" d="M4 40L8 40L8 44L4 44L4 40Z" />
	<path class="shp0" d="M40 40L44 40L44 44L40 44L40 40Z" />
	<path class="shp0" d="M8 23.43L8 10C8 8.9 8.9 8 10 8L38 8C39.1 8 40 8.9 40 10L40 20.13L44 20.13L44 10C44 6.69 41.31 4 38 4L10 4C6.69 4 4 6.69 4 10L4 23.43L8 23.43Z" />
</svg>