<svg version="1.2" baseProfile="tiny-ps" xmlns="http://www.w3.org/2000/svg" viewBox="0 0 76 76" width="76" height="76">
	<title>noun_bed and breakfast_959373-svg</title>
	<style>
		tspan { white-space:pre }
		.shp0 { fill: #000000 } 
	</style>
	<path fill-rule="evenodd" class="shp0" d="M74.7 38C74.7 55.1 60.8 69 43.7 69C34.8 69 26.9 65.3 21.2 59.3L3.8 59.3L3.8 75.1C3.8 75.7 3.4 76.1 2.8 76.1C2.2 76.1 1.8 75.7 1.8 75.1L1.8 0.8C1.8 0.2 2.2 -0.2 2.8 -0.2C3.4 -0.2 3.8 0.2 3.8 0.8L3.8 16.6L21.2 16.6C26.9 10.6 34.8 6.9 43.7 6.9C60.8 6.9 74.7 20.9 74.7 38ZM3.8 57.2L19.5 57.2C15.2 51.9 12.7 45.2 12.7 37.9C12.7 30.6 15.3 23.9 19.5 18.6L3.8 18.6L3.8 57.2ZM72.7 38C72.7 22 59.7 9 43.7 9C27.7 9 14.7 22 14.7 38C14.7 54 27.7 67 43.7 67C59.7 67 72.7 54 72.7 38Z" />
	<path fill-rule="evenodd" class="shp0" d="M61.9 27.1L61.9 48C61.9 48.6 61.5 49 60.9 49C60.3 49 59.9 48.6 59.9 48L59.9 43.4L27.3 43.4L27.3 48C27.3 48.6 26.9 49 26.3 49C25.7 49 25.3 48.6 25.3 48L25.3 27.2C25.3 26.6 25.7 26.2 26.3 26.2C26.9 26.2 27.3 26.6 27.3 27.2L27.3 31.1L32.6 31.1C34.5 31.1 36.1 32.6 36.1 34.6C36.1 35.1 35.9 35.6 35.7 36.1L59.8 36.1L59.8 27.1C59.8 26.5 60.2 26.1 60.8 26.1C61.4 26.1 61.8 26.6 61.9 27.1ZM32.5 33L27.2 33L27.2 36.1L32.5 36.1C33.3 36.1 34 35.4 34 34.6C34 33.8 33.3 33.1 32.5 33.1L32.5 33ZM59.9 41.4L59.9 38.2L27.3 38.2L27.3 41.4L59.9 41.4Z" />
</svg>