<svg version="1.2" baseProfile="tiny-ps" xmlns="http://www.w3.org/2000/svg" viewBox="0 0 24 24" width="24" height="24">
	<title>noun_Close_392995-svg</title>
	<style>
		tspan { white-space:pre }
		.shp0 { fill: #ff0000 } 
	</style>
	<g >
		<path class="shp0" d="M23.12 0.9C21.95 -0.27 20.07 -0.27 18.9 0.9L12.01 7.79L5.13 0.9C3.96 -0.27 2.08 -0.27 0.9 0.9C-0.27 2.08 -0.27 3.96 0.9 5.13L7.79 12.01L0.9 18.9C-0.27 20.07 -0.27 21.95 0.9 23.12C1.5 23.72 2.25 24.01 3.02 24.01C3.79 24.01 4.56 23.72 5.13 23.12L12.01 16.24L18.9 23.12C19.5 23.72 20.24 24.01 21.01 24.01C21.78 24.01 22.55 23.72 23.12 23.12C24.29 21.95 24.29 20.07 23.12 18.9L16.24 12.01L23.12 5.13C24.29 3.96 24.29 2.08 23.12 0.9Z" />
	</g>
</svg>