<svg version="1.2" baseProfile="tiny-ps" xmlns="http://www.w3.org/2000/svg" viewBox="0 0 90 90" width="90" height="90"><title>noun_Star_1359493-svg</title><style>tspan { white-space:pre }.shp0 { fill: #ff385c } </style><path class="shp0" d="M64.56 27.08L83.8 29.85C89.26 30.64 91.45 37.34 87.5 41.19L73.6 54.78C72.03 56.31 71.32 58.51 71.69 60.67L75 79.82C75.94 85.25 70.24 89.4 65.36 86.84L48.14 77.82C46.2 76.8 43.89 76.81 41.95 77.83L24.76 86.89C19.88 89.47 14.17 85.33 15.1 79.89L18.36 60.73C18.73 58.57 18.01 56.37 16.44 54.85L2.51 41.29C-1.45 37.45 0.72 30.74 6.18 29.94L25.41 27.13C27.58 26.81 29.45 25.45 30.42 23.48L39 6.04C41.43 1.09 48.48 1.08 50.93 6.03L59.55 23.45C60.52 25.41 62.4 26.77 64.56 27.08Z" /></svg>